<?xml version="1.0" standalone="no"?>
<!DOCTYPE svg PUBLIC "-//W3C//DTD SVG 20010904//EN"
 "http://www.w3.org/TR/2001/REC-SVG-20010904/DTD/svg10.dtd">
<svg version="1.0" xmlns="http://www.w3.org/2000/svg"
 width="300.000000pt" height="273.000000pt" viewBox="0 0 300.000000 273.000000"
 preserveAspectRatio="xMidYMid meet">
<metadata>
Created by potrace 1.10, written by Peter Selinger 2001-2011
</metadata>
<g transform="translate(0.000000,273.000000) scale(0.100000,-0.100000)"
fill="#000000" stroke="none">
<path d="M465 2598 c-35 -18 -92 -36 -138 -44 -103 -17 -205 -57 -256 -100
-43 -37 -53 -64 -23 -64 9 0 75 -7 145 -14 106 -11 132 -17 151 -35 31 -29 46
-84 46 -164 0 -42 4 -67 12 -69 10 -4 10 -29 1 -117 l-11 -113 29 -64 c23 -50
29 -78 29 -131 1 -89 24 -139 103 -223 73 -78 186 -229 217 -291 79 -154 135
-338 161 -526 15 -110 15 -110 -101 -212 -80 -71 -80 -71 -138 -71 -31 1 -68
7 -82 15 -32 18 -42 18 -66 0 -18 -14 -17 -14 15 -8 36 7 37 3 16 -51 -7 -16
-5 -17 12 -8 11 6 23 8 27 5 4 -4 30 -9 59 -10 29 -2 71 -6 93 -9 26 -4 44 -2
48 5 4 6 39 11 85 11 73 0 78 1 89 25 13 29 24 31 47 9 22 -23 28 -13 8 15
-14 20 -21 22 -57 16 -68 -12 -109 -11 -113 3 -3 7 27 45 65 85 109 113 122
136 122 224 0 73 0 73 25 67 21 -5 25 -3 25 15 0 27 18 27 47 -1 20 -19 25
-20 33 -8 5 8 7 23 4 33 -3 10 2 27 11 37 11 12 14 26 9 44 -7 31 9 35 44 10
19 -13 22 -25 23 -87 0 -40 4 -99 8 -132 8 -64 -5 -139 -49 -285 -26 -86 -56
-120 -147 -167 -35 -18 -59 -37 -62 -49 -3 -18 -2 -18 16 -2 12 11 23 14 32 8
8 -4 25 -4 38 1 29 11 29 3 -1 -42 -14 -20 -28 -49 -31 -65 l-6 -29 17 22 c9
13 25 23 35 23 10 0 37 24 61 55 45 58 52 62 92 43 22 -9 29 -8 45 6 26 24 55
13 75 -27 l16 -32 0 28 c0 39 -40 77 -83 77 -47 0 -57 15 -57 87 0 49 8 84 35
154 20 50 46 107 59 127 48 78 59 110 52 162 -4 29 -2 51 4 55 6 4 7 22 4 46
-6 37 -5 39 20 39 14 0 51 -12 81 -27 39 -19 60 -25 69 -18 63 47 72 50 126
49 30 -1 120 -19 200 -39 100 -26 166 -37 212 -37 52 1 77 -5 115 -23 26 -14
58 -25 71 -25 13 0 46 -13 75 -29 29 -15 57 -26 63 -24 6 2 33 -8 59 -21 30
-17 53 -23 62 -17 8 4 33 3 54 -3 31 -8 42 -7 48 2 6 10 22 11 69 3 34 -5 66
-12 71 -15 5 -3 14 1 21 10 7 8 20 12 27 9 9 -3 13 1 11 11 -2 8 -46 38 -98
65 -187 99 -227 124 -385 238 -109 79 -154 117 -142 119 25 5 233 -42 382 -85
68 -20 148 -37 185 -38 36 -2 78 -8 94 -14 36 -14 53 -2 37 27 -16 31 -79 75
-149 106 -75 33 -73 32 -311 96 -101 28 -199 60 -218 71 -19 12 -57 33 -86 46
-48 23 -50 26 -33 39 19 13 19 15 0 56 -49 113 -92 151 -229 202 -28 10 -93
38 -146 62 -58 27 -121 47 -162 53 -61 9 -73 14 -130 64 -50 44 -244 197 -432
341 -16 13 -37 36 -45 52 -44 86 -164 276 -200 316 -94 108 -236 138 -355 76z"/>
</g>
</svg>
